<svg width="204" height="50" viewBox="0 0 204 50" fill="none" xmlns="http://www.w3.org/2000/svg">
<path d="M81.9554 22.8712V31.7042C80.1751 32.7808 78.1358 33.3535 76.0554 33.3612C74.8906 33.3841 73.7331 33.1744 72.6505 32.7443C71.5678 32.3142 70.5818 31.6725 69.7503 30.8566C68.9188 30.0407 68.2584 29.0671 67.8079 27.9928C67.3573 26.9185 67.1256 25.7652 67.1264 24.6002C67.1373 23.4223 67.3833 22.2583 67.85 21.1767C68.3168 20.0951 68.9948 19.1176 69.8444 18.3015C70.694 17.4855 71.698 16.8473 72.7975 16.4245C73.8971 16.0017 75.0699 15.8027 76.2474 15.8392C77.9143 15.8278 79.5599 16.2146 81.0474 16.9672L80.4474 20.9522C79.2065 20.233 77.8015 19.8446 76.3674 19.8242C75.7236 19.7959 75.0808 19.8986 74.478 20.1262C73.8751 20.3537 73.3247 20.7013 72.8602 21.1479C72.3956 21.5945 72.0266 22.1307 71.7755 22.7241C71.5244 23.3176 71.3964 23.9559 71.3994 24.6002C71.3869 25.237 71.5044 25.8696 71.7445 26.4594C71.9847 27.0493 72.3425 27.584 72.7961 28.0309C73.2498 28.4779 73.7899 28.8277 74.3832 29.059C74.9766 29.2903 75.6109 29.3982 76.2474 29.3762C76.9031 29.3897 77.5552 29.2756 78.1674 29.0402V26.4242H74.9994L75.4994 22.8712H81.9554Z" fill="#35415F"/>
<path d="M94.1234 33.0002L90.5464 26.3752V33.0002H86.3464V16.2002H91.9664C96.0224 16.2002 98.2304 18.4562 98.2304 21.5002C98.2541 22.5382 97.9486 23.5571 97.3578 24.4109C96.767 25.2646 95.9212 25.9096 94.9414 26.2532L99.1184 32.9972L94.1234 33.0002ZM90.5464 24.1002H91.3394C93.0194 24.1002 93.9554 23.1642 93.9554 21.8432C93.9554 20.5432 93.0194 19.6112 91.3394 19.6112H90.5464V24.1002Z" fill="#35415F"/>
<path d="M112.65 29.4963H107.082L106.05 32.9963H101.514L107.414 16.1963H112.314L118.214 32.9963H113.678L112.65 29.4963ZM111.57 25.8713L109.87 20.1353L108.17 25.8713H111.57Z" fill="#35415F"/>
<path d="M136.939 16.1992V32.9992H132.978L125.826 23.3742V32.9992H121.649V16.1992H125.634L132.763 25.7512V16.1992H136.939Z" fill="#35415F"/>
<path d="M141.521 16.1994H146.897C148.029 16.1532 149.159 16.3362 150.218 16.7375C151.278 17.1388 152.245 17.7501 153.062 18.5347C153.88 19.3192 154.53 20.2609 154.974 21.3031C155.418 22.3453 155.647 23.4665 155.647 24.5994C155.647 25.7323 155.418 26.8535 154.974 27.8957C154.53 28.9379 153.88 29.8795 153.062 30.6641C152.245 31.4486 151.278 32.0599 150.218 32.4613C149.159 32.8626 148.029 33.0456 146.897 32.9994H141.521V16.1994ZM146.729 29.0404C147.324 29.0582 147.915 28.9566 148.47 28.7415C149.024 28.5264 149.53 28.2022 149.956 27.7881C150.383 27.374 150.722 26.8785 150.954 26.331C151.185 25.7834 151.305 25.1949 151.305 24.6004C151.305 24.0058 151.185 23.4173 150.954 22.8698C150.722 22.3222 150.383 21.8267 149.956 21.4126C149.53 20.9986 149.024 20.6744 148.47 20.4593C147.915 20.2442 147.324 20.1425 146.729 20.1604H145.766V29.0404H146.729Z" fill="#35415F"/>
<path d="M171.69 22.2471C171.69 25.7761 168.93 28.3471 165.113 28.3471H163.722V33.0031H159.473V16.2031H165.113C168.93 16.1991 171.69 18.7441 171.69 22.2471ZM167.418 22.2471C167.412 21.9026 167.334 21.5632 167.191 21.25C167.047 20.9369 166.841 20.6566 166.584 20.4269C166.327 20.1972 166.026 20.0229 165.699 19.9149C165.371 19.8068 165.025 19.7674 164.682 19.7991H163.722V24.7441H164.682C165.029 24.7726 165.377 24.7293 165.706 24.6171C166.035 24.5048 166.338 24.3259 166.594 24.0916C166.851 23.8573 167.057 23.5726 167.199 23.2552C167.34 22.9379 167.415 22.5947 167.418 22.2471Z" fill="#35415F"/>
<path d="M183.954 29.4963H178.386L177.353 32.9963H172.817L178.722 16.1963H183.622L189.522 32.9963H184.986L183.954 29.4963ZM182.874 25.8713L181.174 20.1353L179.474 25.8713H182.874Z" fill="#35415F"/>
<path d="M203.13 28.9202L202.53 33.0002H192.954V16.2002H197.202V28.9212L203.13 28.9202Z" fill="#35415F"/>
<path d="M7.06694 13.4468C4.86901 14.0693 2.98035 15.4854 1.76692 17.4209C0.675018 19.3246 0.0694705 21.4682 0.00392064 23.6618C-0.0901839 28.6322 1.51221 33.4863 4.54692 37.4238C7.37492 41.3058 11.0749 44.2619 14.8819 47.1239C15.6819 47.7239 16.5099 48.3339 17.3459 48.8909C17.6879 49.1189 19.0839 50.2278 19.2799 49.3488C19.305 49.1514 19.2771 48.9509 19.1989 48.7678C18.1319 45.4998 16.9989 42.2418 16.1319 38.9118C15.3064 35.7417 14.6485 32.5302 14.1609 29.2908C13.6789 26.0578 13.5109 22.8059 13.2559 19.5509C13.1199 17.8209 12.8199 15.9008 11.5459 14.6128C10.9745 14.0317 10.2562 13.6163 9.46751 13.411C8.67879 13.2057 7.84918 13.2181 7.06694 13.4468Z" fill="#FFB819"/>
<path d="M33.1159 0C31.8707 0.00841117 30.6367 0.235179 29.4699 0.669998C27.279 1.50486 25.2791 2.77317 23.5899 4.399C22.722 5.24563 21.9522 6.18721 21.2949 7.20599C19.6797 9.80972 18.5293 12.6743 17.8949 15.672C17.1704 18.6877 16.8539 21.7871 16.9539 24.887C17.0552 27.2491 17.293 29.6033 17.6659 31.938C18.001 34.2042 18.4989 36.4434 19.1559 38.638C19.5889 39.897 20.2909 41.898 21.0559 41.65C21.4859 41.51 22.1289 39.525 22.3759 38.761C23.5497 35.8192 24.9444 32.9704 26.5479 30.239C28.2029 27.41 29.9479 24.639 31.7099 21.871C31.9389 21.51 32.1639 21.146 32.3989 20.788C33.2239 19.532 34.1079 18.314 34.9439 17.065C36.4994 14.9403 37.88 12.693 39.0719 10.345C39.9477 8.62918 40.175 6.65494 39.7119 4.785C39.5167 4.17746 39.2413 3.59867 38.8929 3.064C38.4724 2.374 37.9323 1.76448 37.2979 1.26401C36.5204 0.695435 35.6227 0.31325 34.6739 0.147003C34.1603 0.049692 33.6387 0.000475925 33.1159 0Z" fill="#FFB819"/>
<path d="M42.6759 21.1439C39.7039 22.0309 36.2759 24.3209 32.6489 28.1589C29.963 31.065 27.6566 34.3002 25.7849 37.7869C24.56 40.2215 23.6008 42.7809 22.9239 45.4209C22.7649 46.0519 22.4559 47.3209 22.3739 47.9659C22.3019 48.5329 22.3739 48.8169 22.7659 48.8329C23.2819 48.8539 24.0899 48.2159 24.6079 47.8129C29.4229 44.0579 35.0889 42.2928 40.8229 40.4928C44.7952 39.424 48.5327 37.622 51.8429 35.1799C52.898 34.355 53.7612 33.3107 54.3729 32.1193C54.9847 30.928 55.3303 29.618 55.3859 28.2799C55.4873 26.6716 55.029 25.0778 54.0888 23.769C53.1486 22.4602 51.7844 21.5172 50.2279 21.0999C47.7569 20.4013 45.1386 20.4165 42.6759 21.1439Z" fill="#FFB819"/>
</svg>
