<svg width="183" height="60" viewBox="0 0 183 60" fill="none" xmlns="http://www.w3.org/2000/svg">
<path d="M4.15305 4.62605C4.34872 2.01702 6.52268 0 9.13904 0H177.744C180.603 0 182.88 2.39377 182.738 5.24969L180.238 55.2497C180.104 57.9107 177.908 60 175.244 60H5.38904C2.48028 60 0.1855 57.5267 0.403046 54.6261L4.15305 4.62605Z" fill="#5F4BB6"/>
<path d="M4.15305 4.62605C4.34872 2.01702 6.52268 0 9.13904 0H177.744C180.603 0 182.88 2.39377 182.738 5.24969L180.238 55.2497C180.104 57.9107 177.908 60 175.244 60H5.38904C2.48028 60 0.1855 57.5267 0.403046 54.6261L4.15305 4.62605Z" fill="url(#paint0_radial)"/>
<path d="M44.432 21.472C44.432 23.136 44.192 24.912 43.712 26.8C43.232 28.656 42.56 30.512 41.696 32.368C40.832 34.192 39.76 35.952 38.48 37.648C37.232 39.312 35.808 40.784 34.208 42.064C32.608 43.312 30.848 44.32 28.928 45.088C27.04 45.856 25.024 46.24 22.88 46.24C22.432 46.24 21.984 46.208 21.536 46.144C21.088 46.112 20.64 46.064 20.192 46C21.056 41.584 21.904 37.28 22.736 33.088C23.056 31.328 23.392 29.504 23.744 27.616C24.096 25.696 24.432 23.808 24.752 21.952C25.072 20.096 25.376 18.32 25.664 16.624C25.984 14.928 26.24 13.392 26.432 12.016C27.808 11.76 29.2 11.52 30.608 11.296C32.016 11.072 33.456 10.96 34.928 10.96C36.656 10.96 38.112 11.232 39.296 11.776C40.512 12.32 41.488 13.072 42.224 14.032C42.992 14.992 43.552 16.112 43.904 17.392C44.256 18.672 44.432 20.032 44.432 21.472ZM33.104 17.728C32.752 19.616 32.384 21.424 32 23.152C31.616 24.88 31.232 26.624 30.848 28.384C30.464 30.144 30.08 31.984 29.696 33.904C29.312 35.824 28.944 37.92 28.592 40.192C29.36 39.68 30.096 38.992 30.8 38.128C31.536 37.232 32.224 36.208 32.864 35.056C33.504 33.904 34.08 32.688 34.592 31.408C35.136 30.128 35.6 28.88 35.984 27.664C36.368 26.448 36.656 25.312 36.848 24.256C37.072 23.2 37.184 22.288 37.184 21.52C37.184 20.336 36.848 19.408 36.176 18.736C35.536 18.064 34.512 17.728 33.104 17.728ZM70.4675 20.032C70.4675 22.656 70.1795 25.136 69.6035 27.472C69.0595 29.776 68.3235 31.904 67.3955 33.856C66.4675 35.776 65.3795 37.504 64.1315 39.04C62.9155 40.544 61.6355 41.84 60.2915 42.928C58.9475 43.984 57.5875 44.8 56.2115 45.376C54.8355 45.92 53.5235 46.192 52.2755 46.192C51.2195 46.192 50.2595 46 49.3955 45.616C48.5315 45.2 47.7795 44.608 47.1395 43.84C46.4995 43.04 45.9875 42.032 45.6035 40.816C45.2515 39.568 45.0755 38.08 45.0755 36.352C45.0755 34.56 45.2995 32.672 45.7475 30.688C46.1955 28.704 46.8035 26.736 47.5715 24.784C48.3395 22.832 49.2835 20.976 50.4035 19.216C51.5235 17.456 52.7555 15.904 54.0995 14.56C55.4435 13.184 56.8835 12.096 58.4195 11.296C59.9555 10.496 61.5555 10.096 63.2195 10.096C64.6595 10.096 65.8435 10.4 66.7715 11.008C67.7315 11.584 68.4675 12.352 68.9795 13.312C69.5235 14.24 69.9075 15.296 70.1315 16.48C70.3555 17.664 70.4675 18.848 70.4675 20.032ZM52.2275 35.104C52.2275 35.456 52.2915 35.824 52.4195 36.208C52.5475 36.592 52.7235 36.928 52.9475 37.216C53.1715 37.504 53.4435 37.76 53.7635 37.984C54.1155 38.176 54.4835 38.272 54.8675 38.272C56.3075 38.272 57.5875 37.776 58.7075 36.784C59.8275 35.792 60.7555 34.576 61.4915 33.136C62.2275 31.696 62.7875 30.16 63.1715 28.528C63.5875 26.896 63.7955 25.408 63.7955 24.064C63.7955 23.68 63.7635 23.264 63.6995 22.816C63.6675 22.368 63.5715 21.952 63.4115 21.568C63.2835 21.184 63.0595 20.864 62.7395 20.608C62.4515 20.32 62.0515 20.176 61.5395 20.176C60.5155 20.176 59.5715 20.432 58.7075 20.944C57.8435 21.456 57.0595 22.144 56.3555 23.008C55.6835 23.84 55.0915 24.8 54.5795 25.888C54.0675 26.944 53.6195 28.032 53.2355 29.152C52.8835 30.24 52.6275 31.312 52.4675 32.368C52.3075 33.424 52.2275 34.336 52.2275 35.104ZM86.9015 45.04C86.1015 45.168 85.2215 45.312 84.2615 45.472C83.3015 45.632 82.4375 45.776 81.6695 45.904C81.7975 44.848 81.9255 43.808 82.0535 42.784C82.1495 41.888 82.2295 40.992 82.2935 40.096C82.3895 39.2 82.4695 38.432 82.5335 37.792H78.3575L76.4375 44.704C75.7335 44.8 74.9015 44.912 73.9415 45.04C72.9815 45.136 72.0855 45.232 71.2535 45.328C70.2295 45.456 69.2215 45.584 68.2295 45.712C69.5095 41.456 70.7735 37.264 72.0215 33.136C72.5335 31.408 73.0615 29.6 73.6055 27.712C74.1815 25.824 74.7415 23.952 75.2855 22.096C75.8615 20.208 76.4055 18.4 76.9175 16.672C77.4295 14.944 77.8775 13.36 78.2615 11.92C80.4375 11.76 82.6455 11.568 84.8855 11.344C87.1575 11.12 89.3655 10.816 91.5095 10.432C91.4135 11.456 91.3015 12.736 91.1735 14.272C91.0775 15.776 90.9815 17.424 90.8855 19.216C90.7895 21.008 90.6935 22.88 90.5975 24.832C90.5015 26.784 90.4055 28.704 90.3095 30.592C90.1495 35.008 89.9735 39.696 89.7815 44.656C88.8215 44.816 87.8615 44.944 86.9015 45.04ZM79.5095 32.992C79.6375 32.992 79.8615 32.992 80.1815 32.992C80.5335 32.96 80.8855 32.944 81.2375 32.944C81.6215 32.912 81.9735 32.896 82.2935 32.896C82.6135 32.864 82.8375 32.832 82.9655 32.8C82.9655 32.608 82.9815 32.288 83.0135 31.84C83.0775 31.36 83.1255 30.832 83.1575 30.256C83.2215 29.648 83.2855 28.992 83.3495 28.288C83.4135 27.584 83.4775 26.896 83.5415 26.224C83.6695 24.592 83.8295 22.832 84.0215 20.944L84.3095 16.768L83.5895 16.816L82.4855 20.944L79.5095 32.992ZM92.5951 46.048C93.4591 41.792 94.2911 37.632 95.0911 33.568C95.3791 31.84 95.6991 30.048 96.0511 28.192C96.4031 26.304 96.7231 24.448 97.0111 22.624C97.3311 20.768 97.6191 18.992 97.8751 17.296C98.1631 15.568 98.3871 14 98.5471 12.592C100.371 12.016 102.339 11.6 104.451 11.344C106.563 11.056 108.659 10.912 110.739 10.912C111.987 10.912 113.011 11.056 113.811 11.344C114.643 11.632 115.283 12.048 115.731 12.592C116.211 13.104 116.547 13.712 116.739 14.416C116.931 15.12 117.027 15.904 117.027 16.768C117.027 18.048 116.803 19.312 116.355 20.56C115.907 21.776 115.299 22.944 114.531 24.064C113.795 25.152 112.931 26.16 111.939 27.088C110.979 27.984 109.939 28.72 108.819 29.296C109.395 30.576 110.003 31.984 110.643 33.52C111.315 35.024 111.939 36.464 112.515 37.84C113.155 39.44 113.811 41.04 114.483 42.64L107.043 45.232C106.403 43.024 105.827 40.944 105.315 38.992C105.091 38.192 104.867 37.376 104.643 36.544C104.419 35.68 104.211 34.88 104.019 34.144C103.827 33.376 103.667 32.704 103.539 32.128C103.411 31.552 103.331 31.104 103.299 30.784L102.675 30.976C102.483 32 102.243 33.248 101.955 34.72C101.699 36.192 101.459 37.616 101.235 38.992C100.947 40.624 100.659 42.304 100.371 44.032L92.5951 46.048ZM103.875 25.216C104.483 25.152 105.219 24.896 106.083 24.448C106.979 24 107.827 23.472 108.627 22.864C109.427 22.224 110.115 21.568 110.691 20.896C111.267 20.224 111.555 19.632 111.555 19.12C111.555 18.768 111.443 18.496 111.219 18.304C110.995 18.08 110.675 17.92 110.259 17.824C109.875 17.696 109.443 17.616 108.963 17.584C108.483 17.552 107.987 17.536 107.475 17.536C107.123 17.536 106.755 17.552 106.371 17.584C106.019 17.584 105.699 17.584 105.411 17.584L103.875 25.216ZM136.099 36.64C135.651 38.464 135.011 40.016 134.179 41.296C133.379 42.576 132.419 43.632 131.299 44.464C130.211 45.296 129.043 45.904 127.795 46.288C126.547 46.672 125.299 46.864 124.051 46.864C123.315 46.864 122.563 46.736 121.795 46.48C121.027 46.256 120.339 45.904 119.731 45.424C119.123 44.944 118.611 44.336 118.195 43.6C117.811 42.864 117.619 42 117.619 41.008C117.619 40.88 117.619 40.752 117.619 40.624C117.619 40.496 117.635 40.368 117.667 40.24C117.795 38.928 118.003 37.344 118.291 35.488C118.579 33.632 118.883 31.696 119.203 29.68C119.523 27.664 119.875 25.648 120.259 23.632C120.643 21.584 120.979 19.728 121.267 18.064C121.587 16.4 121.859 15.024 122.083 13.936C122.307 12.816 122.451 12.128 122.515 11.872C123.187 11.808 123.987 11.728 124.915 11.632C125.843 11.536 126.707 11.456 127.507 11.392C128.499 11.296 129.475 11.2 130.435 11.104C129.603 14.976 128.867 18.48 128.227 21.616C127.939 22.96 127.651 24.304 127.363 25.648C127.107 26.992 126.851 28.224 126.595 29.344C126.371 30.464 126.163 31.44 125.971 32.272C125.811 33.072 125.667 33.728 125.539 34.24C125.443 34.752 125.315 35.408 125.155 36.208C125.027 36.976 124.963 37.68 124.963 38.32C124.963 38.832 125.091 39.264 125.347 39.616C125.603 39.936 125.923 40.096 126.307 40.096C126.851 40.096 127.299 39.888 127.651 39.472C128.003 39.024 128.291 38.496 128.515 37.888C128.771 37.28 128.947 36.672 129.043 36.064C129.171 35.424 129.283 34.928 129.379 34.576C129.571 33.648 129.779 32.624 130.003 31.504C130.259 30.352 130.499 29.168 130.723 27.952C130.979 26.704 131.219 25.44 131.443 24.16C131.699 22.88 131.939 21.632 132.163 20.416C132.707 17.6 133.235 14.688 133.747 11.68L141.043 11.2C141.043 11.2 140.963 11.616 140.803 12.448C140.643 13.28 140.435 14.384 140.179 15.76C139.923 17.136 139.635 18.704 139.315 20.464C139.027 22.224 138.691 24.064 138.307 25.984C137.923 27.872 137.539 29.744 137.155 31.6C136.803 33.424 136.451 35.104 136.099 36.64ZM138.929 46.24C139.825 41.728 140.689 37.328 141.521 33.04C141.841 31.248 142.177 29.376 142.529 27.424C142.913 25.44 143.265 23.504 143.585 21.616C143.905 19.696 144.193 17.856 144.449 16.096C144.737 14.304 144.961 12.672 145.121 11.2C146.113 11.136 147.073 11.072 148.001 11.008C148.833 10.944 149.681 10.896 150.545 10.864C151.409 10.8 152.177 10.736 152.849 10.672C153.265 13.136 153.633 15.488 153.953 17.728C154.113 18.688 154.273 19.696 154.433 20.752C154.625 21.776 154.801 22.768 154.961 23.728C155.121 24.688 155.281 25.616 155.441 26.512C155.601 27.376 155.761 28.144 155.921 28.816C156.049 28.144 156.193 27.376 156.353 26.512C156.513 25.616 156.689 24.688 156.881 23.728C157.073 22.736 157.265 21.728 157.457 20.704C157.681 19.68 157.889 18.688 158.081 17.728C158.561 15.488 159.057 13.152 159.569 10.72L165.425 10C164.337 14.8 163.377 19.344 162.545 23.632C162.161 25.488 161.777 27.36 161.393 29.248C161.041 31.136 160.705 32.96 160.385 34.72C160.065 36.48 159.793 38.112 159.569 39.616C159.345 41.088 159.169 42.336 159.041 43.36C158.945 43.36 158.561 43.44 157.889 43.6C157.249 43.728 156.497 43.888 155.633 44.08C154.801 44.272 153.953 44.48 153.089 44.704C152.257 44.896 151.633 45.056 151.217 45.184C150.993 42.592 150.753 40.128 150.497 37.792C150.401 36.8 150.289 35.776 150.161 34.72C150.033 33.664 149.905 32.656 149.777 31.696C149.681 30.736 149.569 29.84 149.441 29.008C149.345 28.144 149.249 27.424 149.153 26.848C149.057 27.424 148.929 28.128 148.769 28.96C148.609 29.792 148.449 30.688 148.289 31.648C148.129 32.576 147.969 33.552 147.809 34.576C147.649 35.568 147.473 36.544 147.281 37.504C146.865 39.776 146.417 42.144 145.937 44.608L138.929 46.24Z" fill="#00C6C7"/>
<path d="M45.432 21.472C45.432 23.136 45.192 24.912 44.712 26.8C44.232 28.656 43.56 30.512 42.696 32.368C41.832 34.192 40.76 35.952 39.48 37.648C38.232 39.312 36.808 40.784 35.208 42.064C33.608 43.312 31.848 44.32 29.928 45.088C28.04 45.856 26.024 46.24 23.88 46.24C23.432 46.24 22.984 46.208 22.536 46.144C22.088 46.112 21.64 46.064 21.192 46C22.056 41.584 22.904 37.28 23.736 33.088C24.056 31.328 24.392 29.504 24.744 27.616C25.096 25.696 25.432 23.808 25.752 21.952C26.072 20.096 26.376 18.32 26.664 16.624C26.984 14.928 27.24 13.392 27.432 12.016C28.808 11.76 30.2 11.52 31.608 11.296C33.016 11.072 34.456 10.96 35.928 10.96C37.656 10.96 39.112 11.232 40.296 11.776C41.512 12.32 42.488 13.072 43.224 14.032C43.992 14.992 44.552 16.112 44.904 17.392C45.256 18.672 45.432 20.032 45.432 21.472ZM34.104 17.728C33.752 19.616 33.384 21.424 33 23.152C32.616 24.88 32.232 26.624 31.848 28.384C31.464 30.144 31.08 31.984 30.696 33.904C30.312 35.824 29.944 37.92 29.592 40.192C30.36 39.68 31.096 38.992 31.8 38.128C32.536 37.232 33.224 36.208 33.864 35.056C34.504 33.904 35.08 32.688 35.592 31.408C36.136 30.128 36.6 28.88 36.984 27.664C37.368 26.448 37.656 25.312 37.848 24.256C38.072 23.2 38.184 22.288 38.184 21.52C38.184 20.336 37.848 19.408 37.176 18.736C36.536 18.064 35.512 17.728 34.104 17.728ZM71.4675 20.032C71.4675 22.656 71.1795 25.136 70.6035 27.472C70.0595 29.776 69.3235 31.904 68.3955 33.856C67.4675 35.776 66.3795 37.504 65.1315 39.04C63.9155 40.544 62.6355 41.84 61.2915 42.928C59.9475 43.984 58.5875 44.8 57.2115 45.376C55.8355 45.92 54.5235 46.192 53.2755 46.192C52.2195 46.192 51.2595 46 50.3955 45.616C49.5315 45.2 48.7795 44.608 48.1395 43.84C47.4995 43.04 46.9875 42.032 46.6035 40.816C46.2515 39.568 46.0755 38.08 46.0755 36.352C46.0755 34.56 46.2995 32.672 46.7475 30.688C47.1955 28.704 47.8035 26.736 48.5715 24.784C49.3395 22.832 50.2835 20.976 51.4035 19.216C52.5235 17.456 53.7555 15.904 55.0995 14.56C56.4435 13.184 57.8835 12.096 59.4195 11.296C60.9555 10.496 62.5555 10.096 64.2195 10.096C65.6595 10.096 66.8435 10.4 67.7715 11.008C68.7315 11.584 69.4675 12.352 69.9795 13.312C70.5235 14.24 70.9075 15.296 71.1315 16.48C71.3555 17.664 71.4675 18.848 71.4675 20.032ZM53.2275 35.104C53.2275 35.456 53.2915 35.824 53.4195 36.208C53.5475 36.592 53.7235 36.928 53.9475 37.216C54.1715 37.504 54.4435 37.76 54.7635 37.984C55.1155 38.176 55.4835 38.272 55.8675 38.272C57.3075 38.272 58.5875 37.776 59.7075 36.784C60.8275 35.792 61.7555 34.576 62.4915 33.136C63.2275 31.696 63.7875 30.16 64.1715 28.528C64.5875 26.896 64.7955 25.408 64.7955 24.064C64.7955 23.68 64.7635 23.264 64.6995 22.816C64.6675 22.368 64.5715 21.952 64.4115 21.568C64.2835 21.184 64.0595 20.864 63.7395 20.608C63.4515 20.32 63.0515 20.176 62.5395 20.176C61.5155 20.176 60.5715 20.432 59.7075 20.944C58.8435 21.456 58.0595 22.144 57.3555 23.008C56.6835 23.84 56.0915 24.8 55.5795 25.888C55.0675 26.944 54.6195 28.032 54.2355 29.152C53.8835 30.24 53.6275 31.312 53.4675 32.368C53.3075 33.424 53.2275 34.336 53.2275 35.104ZM87.9015 45.04C87.1015 45.168 86.2215 45.312 85.2615 45.472C84.3015 45.632 83.4375 45.776 82.6695 45.904C82.7975 44.848 82.9255 43.808 83.0535 42.784C83.1495 41.888 83.2295 40.992 83.2935 40.096C83.3895 39.2 83.4695 38.432 83.5335 37.792H79.3575L77.4375 44.704C76.7335 44.8 75.9015 44.912 74.9415 45.04C73.9815 45.136 73.0855 45.232 72.2535 45.328C71.2295 45.456 70.2215 45.584 69.2295 45.712C70.5095 41.456 71.7735 37.264 73.0215 33.136C73.5335 31.408 74.0615 29.6 74.6055 27.712C75.1815 25.824 75.7415 23.952 76.2855 22.096C76.8615 20.208 77.4055 18.4 77.9175 16.672C78.4295 14.944 78.8775 13.36 79.2615 11.92C81.4375 11.76 83.6455 11.568 85.8855 11.344C88.1575 11.12 90.3655 10.816 92.5095 10.432C92.4135 11.456 92.3015 12.736 92.1735 14.272C92.0775 15.776 91.9815 17.424 91.8855 19.216C91.7895 21.008 91.6935 22.88 91.5975 24.832C91.5015 26.784 91.4055 28.704 91.3095 30.592C91.1495 35.008 90.9735 39.696 90.7815 44.656C89.8215 44.816 88.8615 44.944 87.9015 45.04ZM80.5095 32.992C80.6375 32.992 80.8615 32.992 81.1815 32.992C81.5335 32.96 81.8855 32.944 82.2375 32.944C82.6215 32.912 82.9735 32.896 83.2935 32.896C83.6135 32.864 83.8375 32.832 83.9655 32.8C83.9655 32.608 83.9815 32.288 84.0135 31.84C84.0775 31.36 84.1255 30.832 84.1575 30.256C84.2215 29.648 84.2855 28.992 84.3495 28.288C84.4135 27.584 84.4775 26.896 84.5415 26.224C84.6695 24.592 84.8295 22.832 85.0215 20.944L85.3095 16.768L84.5895 16.816L83.4855 20.944L80.5095 32.992ZM93.5951 46.048C94.4591 41.792 95.2911 37.632 96.0911 33.568C96.3791 31.84 96.6991 30.048 97.0511 28.192C97.4031 26.304 97.7231 24.448 98.0111 22.624C98.3311 20.768 98.6191 18.992 98.8751 17.296C99.1631 15.568 99.3871 14 99.5471 12.592C101.371 12.016 103.339 11.6 105.451 11.344C107.563 11.056 109.659 10.912 111.739 10.912C112.987 10.912 114.011 11.056 114.811 11.344C115.643 11.632 116.283 12.048 116.731 12.592C117.211 13.104 117.547 13.712 117.739 14.416C117.931 15.12 118.027 15.904 118.027 16.768C118.027 18.048 117.803 19.312 117.355 20.56C116.907 21.776 116.299 22.944 115.531 24.064C114.795 25.152 113.931 26.16 112.939 27.088C111.979 27.984 110.939 28.72 109.819 29.296C110.395 30.576 111.003 31.984 111.643 33.52C112.315 35.024 112.939 36.464 113.515 37.84C114.155 39.44 114.811 41.04 115.483 42.64L108.043 45.232C107.403 43.024 106.827 40.944 106.315 38.992C106.091 38.192 105.867 37.376 105.643 36.544C105.419 35.68 105.211 34.88 105.019 34.144C104.827 33.376 104.667 32.704 104.539 32.128C104.411 31.552 104.331 31.104 104.299 30.784L103.675 30.976C103.483 32 103.243 33.248 102.955 34.72C102.699 36.192 102.459 37.616 102.235 38.992C101.947 40.624 101.659 42.304 101.371 44.032L93.5951 46.048ZM104.875 25.216C105.483 25.152 106.219 24.896 107.083 24.448C107.979 24 108.827 23.472 109.627 22.864C110.427 22.224 111.115 21.568 111.691 20.896C112.267 20.224 112.555 19.632 112.555 19.12C112.555 18.768 112.443 18.496 112.219 18.304C111.995 18.08 111.675 17.92 111.259 17.824C110.875 17.696 110.443 17.616 109.963 17.584C109.483 17.552 108.987 17.536 108.475 17.536C108.123 17.536 107.755 17.552 107.371 17.584C107.019 17.584 106.699 17.584 106.411 17.584L104.875 25.216ZM137.099 36.64C136.651 38.464 136.011 40.016 135.179 41.296C134.379 42.576 133.419 43.632 132.299 44.464C131.211 45.296 130.043 45.904 128.795 46.288C127.547 46.672 126.299 46.864 125.051 46.864C124.315 46.864 123.563 46.736 122.795 46.48C122.027 46.256 121.339 45.904 120.731 45.424C120.123 44.944 119.611 44.336 119.195 43.6C118.811 42.864 118.619 42 118.619 41.008C118.619 40.88 118.619 40.752 118.619 40.624C118.619 40.496 118.635 40.368 118.667 40.24C118.795 38.928 119.003 37.344 119.291 35.488C119.579 33.632 119.883 31.696 120.203 29.68C120.523 27.664 120.875 25.648 121.259 23.632C121.643 21.584 121.979 19.728 122.267 18.064C122.587 16.4 122.859 15.024 123.083 13.936C123.307 12.816 123.451 12.128 123.515 11.872C124.187 11.808 124.987 11.728 125.915 11.632C126.843 11.536 127.707 11.456 128.507 11.392C129.499 11.296 130.475 11.2 131.435 11.104C130.603 14.976 129.867 18.48 129.227 21.616C128.939 22.96 128.651 24.304 128.363 25.648C128.107 26.992 127.851 28.224 127.595 29.344C127.371 30.464 127.163 31.44 126.971 32.272C126.811 33.072 126.667 33.728 126.539 34.24C126.443 34.752 126.315 35.408 126.155 36.208C126.027 36.976 125.963 37.68 125.963 38.32C125.963 38.832 126.091 39.264 126.347 39.616C126.603 39.936 126.923 40.096 127.307 40.096C127.851 40.096 128.299 39.888 128.651 39.472C129.003 39.024 129.291 38.496 129.515 37.888C129.771 37.28 129.947 36.672 130.043 36.064C130.171 35.424 130.283 34.928 130.379 34.576C130.571 33.648 130.779 32.624 131.003 31.504C131.259 30.352 131.499 29.168 131.723 27.952C131.979 26.704 132.219 25.44 132.443 24.16C132.699 22.88 132.939 21.632 133.163 20.416C133.707 17.6 134.235 14.688 134.747 11.68L142.043 11.2C142.043 11.2 141.963 11.616 141.803 12.448C141.643 13.28 141.435 14.384 141.179 15.76C140.923 17.136 140.635 18.704 140.315 20.464C140.027 22.224 139.691 24.064 139.307 25.984C138.923 27.872 138.539 29.744 138.155 31.6C137.803 33.424 137.451 35.104 137.099 36.64ZM139.929 46.24C140.825 41.728 141.689 37.328 142.521 33.04C142.841 31.248 143.177 29.376 143.529 27.424C143.913 25.44 144.265 23.504 144.585 21.616C144.905 19.696 145.193 17.856 145.449 16.096C145.737 14.304 145.961 12.672 146.121 11.2C147.113 11.136 148.073 11.072 149.001 11.008C149.833 10.944 150.681 10.896 151.545 10.864C152.409 10.8 153.177 10.736 153.849 10.672C154.265 13.136 154.633 15.488 154.953 17.728C155.113 18.688 155.273 19.696 155.433 20.752C155.625 21.776 155.801 22.768 155.961 23.728C156.121 24.688 156.281 25.616 156.441 26.512C156.601 27.376 156.761 28.144 156.921 28.816C157.049 28.144 157.193 27.376 157.353 26.512C157.513 25.616 157.689 24.688 157.881 23.728C158.073 22.736 158.265 21.728 158.457 20.704C158.681 19.68 158.889 18.688 159.081 17.728C159.561 15.488 160.057 13.152 160.569 10.72L166.425 10C165.337 14.8 164.377 19.344 163.545 23.632C163.161 25.488 162.777 27.36 162.393 29.248C162.041 31.136 161.705 32.96 161.385 34.72C161.065 36.48 160.793 38.112 160.569 39.616C160.345 41.088 160.169 42.336 160.041 43.36C159.945 43.36 159.561 43.44 158.889 43.6C158.249 43.728 157.497 43.888 156.633 44.08C155.801 44.272 154.953 44.48 154.089 44.704C153.257 44.896 152.633 45.056 152.217 45.184C151.993 42.592 151.753 40.128 151.497 37.792C151.401 36.8 151.289 35.776 151.161 34.72C151.033 33.664 150.905 32.656 150.777 31.696C150.681 30.736 150.569 29.84 150.441 29.008C150.345 28.144 150.249 27.424 150.153 26.848C150.057 27.424 149.929 28.128 149.769 28.96C149.609 29.792 149.449 30.688 149.289 31.648C149.129 32.576 148.969 33.552 148.809 34.576C148.649 35.568 148.473 36.544 148.281 37.504C147.865 39.776 147.417 42.144 146.937 44.608L139.929 46.24Z" fill="white"/>
<defs>
<radialGradient id="paint0_radial" cx="0" cy="0" r="1" gradientUnits="userSpaceOnUse" gradientTransform="translate(90 26.5) rotate(90) scale(33.5 100.5)">
<stop stop-color="#8A78D7"/>
<stop offset="1" stop-color="#5F4BB6"/>
</radialGradient>
</defs>
</svg>
