<svg width="206" height="82" viewBox="0 0 206 82" fill="none" xmlns="http://www.w3.org/2000/svg">
    <path d="M43.2487 32.34C43.2487 34.42 42.9487 36.64 42.3487 39C41.7487 41.32 40.9087 43.64 39.8287 45.96C38.7487 48.24 37.4087 50.44 35.8087 52.56C34.2487 54.64 32.4687 56.48 30.4687 58.08C28.4687 59.64 26.2687 60.9 23.8687 61.86C21.5087 62.82 18.9887 63.3 16.3087 63.3C15.7487 63.3 15.1887 63.26 14.6287 63.18C14.0687 63.14 13.5087 63.08 12.9487 63C14.0287 57.48 15.0887 52.1 16.1287 46.86C16.5287 44.66 16.9487 42.38 17.3887 40.02C17.8287 37.62 18.2487 35.26 18.6487 32.94C19.0487 30.62 19.4287 28.4 19.7887 26.28C20.1887 24.16 20.5087 22.24 20.7487 20.52C22.4687 20.2 24.2087 19.9 25.9687 19.62C27.7287 19.34 29.5287 19.2 31.3687 19.2C33.5287 19.2 35.3487 19.54 36.8287 20.22C38.3487 20.9 39.5687 21.84 40.4887 23.04C41.4487 24.24 42.1487 25.64 42.5887 27.24C43.0287 28.84 43.2487 30.54 43.2487 32.34ZM29.0887 27.66C28.6487 30.02 28.1887 32.28 27.7087 34.44C27.2287 36.6 26.7487 38.78 26.2687 40.98C25.7887 43.18 25.3087 45.48 24.8287 47.88C24.3487 50.28 23.8887 52.9 23.4487 55.74C24.4087 55.1 25.3287 54.24 26.2087 53.16C27.1287 52.04 27.9887 50.76 28.7887 49.32C29.5887 47.88 30.3087 46.36 30.9487 44.76C31.6287 43.16 32.2087 41.6 32.6887 40.08C33.1687 38.56 33.5287 37.14 33.7687 35.82C34.0487 34.5 34.1887 33.36 34.1887 32.4C34.1887 30.92 33.7687 29.76 32.9287 28.92C32.1287 28.08 30.8487 27.66 29.0887 27.66ZM75.7931 30.54C75.7931 33.82 75.4331 36.92 74.7131 39.84C74.0331 42.72 73.1131 45.38 71.9531 47.82C70.7931 50.22 69.4331 52.38 67.8731 54.3C66.3531 56.18 64.7531 57.8 63.0731 59.16C61.3931 60.48 59.6931 61.5 57.9731 62.22C56.2531 62.9 54.6131 63.24 53.0531 63.24C51.7331 63.24 50.5331 63 49.4531 62.52C48.3731 62 47.4331 61.26 46.6331 60.3C45.8331 59.3 45.1931 58.04 44.7131 56.52C44.2731 54.96 44.0531 53.1 44.0531 50.94C44.0531 48.7 44.3331 46.34 44.8931 43.86C45.4531 41.38 46.2131 38.92 47.1731 36.48C48.1331 34.04 49.3131 31.72 50.7131 29.52C52.1131 27.32 53.6531 25.38 55.3331 23.7C57.0131 21.98 58.8131 20.62 60.7331 19.62C62.6531 18.62 64.6531 18.12 66.7331 18.12C68.5331 18.12 70.0131 18.5 71.1731 19.26C72.3731 19.98 73.2931 20.94 73.9331 22.14C74.6131 23.3 75.0931 24.62 75.3731 26.1C75.6531 27.58 75.7931 29.06 75.7931 30.54ZM52.9931 49.38C52.9931 49.82 53.0731 50.28 53.2331 50.76C53.3931 51.24 53.6131 51.66 53.8931 52.02C54.1731 52.38 54.5131 52.7 54.9131 52.98C55.3531 53.22 55.8131 53.34 56.2931 53.34C58.0931 53.34 59.6931 52.72 61.0931 51.48C62.4931 50.24 63.6531 48.72 64.5731 46.92C65.4931 45.12 66.1931 43.2 66.6731 41.16C67.1931 39.12 67.4531 37.26 67.4531 35.58C67.4531 35.1 67.4131 34.58 67.3331 34.02C67.2931 33.46 67.1731 32.94 66.9731 32.46C66.8131 31.98 66.5331 31.58 66.1331 31.26C65.7731 30.9 65.2731 30.72 64.6331 30.72C63.3531 30.72 62.1731 31.04 61.0931 31.68C60.0131 32.32 59.0331 33.18 58.1531 34.26C57.3131 35.3 56.5731 36.5 55.9331 37.86C55.2931 39.18 54.7331 40.54 54.2531 41.94C53.8131 43.3 53.4931 44.64 53.2931 45.96C53.0931 47.28 52.9931 48.42 52.9931 49.38ZM96.3356 61.8C95.3356 61.96 94.2356 62.14 93.0356 62.34C91.8356 62.54 90.7556 62.72 89.7956 62.88C89.9556 61.56 90.1156 60.26 90.2756 58.98C90.3956 57.86 90.4956 56.74 90.5756 55.62C90.6956 54.5 90.7956 53.54 90.8756 52.74H85.6556L83.2556 61.38C82.3756 61.5 81.3356 61.64 80.1356 61.8C78.9356 61.92 77.8156 62.04 76.7756 62.16C75.4956 62.32 74.2356 62.48 72.9956 62.64C74.5956 57.32 76.1756 52.08 77.7356 46.92C78.3756 44.76 79.0356 42.5 79.7156 40.14C80.4356 37.78 81.1356 35.44 81.8156 33.12C82.5356 30.76 83.2156 28.5 83.8556 26.34C84.4956 24.18 85.0556 22.2 85.5356 20.4C88.2556 20.2 91.0156 19.96 93.8156 19.68C96.6556 19.4 99.4156 19.02 102.096 18.54C101.976 19.82 101.836 21.42 101.676 23.34C101.556 25.22 101.436 27.28 101.316 29.52C101.196 31.76 101.076 34.1 100.956 36.54C100.836 38.98 100.716 41.38 100.596 43.74C100.396 49.26 100.176 55.12 99.9356 61.32C98.7356 61.52 97.5356 61.68 96.3356 61.8ZM87.0956 46.74C87.2556 46.74 87.5356 46.74 87.9356 46.74C88.3756 46.7 88.8156 46.68 89.2556 46.68C89.7356 46.64 90.1756 46.62 90.5756 46.62C90.9756 46.58 91.2556 46.54 91.4156 46.5C91.4156 46.26 91.4356 45.86 91.4756 45.3C91.5556 44.7 91.6156 44.04 91.6556 43.32C91.7356 42.56 91.8156 41.74 91.8956 40.86C91.9756 39.98 92.0556 39.12 92.1356 38.28C92.2956 36.24 92.4956 34.04 92.7356 31.68L93.0956 26.46L92.1956 26.52L90.8156 31.68L87.0956 46.74ZM103.453 63.06C104.533 57.74 105.573 52.54 106.573 47.46C106.933 45.3 107.333 43.06 107.773 40.74C108.213 38.38 108.613 36.06 108.973 33.78C109.373 31.46 109.733 29.24 110.053 27.12C110.413 24.96 110.693 23 110.893 21.24C113.173 20.52 115.633 20 118.273 19.68C120.913 19.32 123.533 19.14 126.133 19.14C127.693 19.14 128.973 19.32 129.973 19.68C131.013 20.04 131.813 20.56 132.373 21.24C132.973 21.88 133.393 22.64 133.633 23.52C133.873 24.4 133.993 25.38 133.993 26.46C133.993 28.06 133.713 29.64 133.153 31.2C132.593 32.72 131.833 34.18 130.873 35.58C129.953 36.94 128.873 38.2 127.633 39.36C126.433 40.48 125.133 41.4 123.733 42.12C124.453 43.72 125.213 45.48 126.013 47.4C126.853 49.28 127.633 51.08 128.353 52.8C129.153 54.8 129.973 56.8 130.813 58.8L121.513 62.04C120.713 59.28 119.993 56.68 119.353 54.24C119.073 53.24 118.793 52.22 118.513 51.18C118.233 50.1 117.973 49.1 117.733 48.18C117.493 47.22 117.293 46.38 117.133 45.66C116.973 44.94 116.873 44.38 116.833 43.98L116.053 44.22C115.813 45.5 115.513 47.06 115.153 48.9C114.833 50.74 114.533 52.52 114.253 54.24C113.893 56.28 113.533 58.38 113.173 60.54L103.453 63.06ZM117.553 37.02C118.313 36.94 119.233 36.62 120.313 36.06C121.433 35.5 122.493 34.84 123.493 34.08C124.493 33.28 125.353 32.46 126.073 31.62C126.793 30.78 127.153 30.04 127.153 29.4C127.153 28.96 127.013 28.62 126.733 28.38C126.453 28.1 126.053 27.9 125.533 27.78C125.053 27.62 124.513 27.52 123.913 27.48C123.313 27.44 122.693 27.42 122.053 27.42C121.613 27.42 121.153 27.44 120.673 27.48C120.233 27.48 119.833 27.48 119.473 27.48L117.553 37.02ZM157.833 51.3C157.273 53.58 156.473 55.52 155.433 57.12C154.433 58.72 153.233 60.04 151.833 61.08C150.473 62.12 149.013 62.88 147.453 63.36C145.893 63.84 144.333 64.08 142.773 64.08C141.853 64.08 140.913 63.92 139.953 63.6C138.993 63.32 138.133 62.88 137.373 62.28C136.613 61.68 135.973 60.92 135.453 60C134.973 59.08 134.733 58 134.733 56.76C134.733 56.6 134.733 56.44 134.733 56.28C134.733 56.12 134.753 55.96 134.793 55.8C134.953 54.16 135.213 52.18 135.573 49.86C135.933 47.54 136.313 45.12 136.713 42.6C137.113 40.08 137.553 37.56 138.033 35.04C138.513 32.48 138.933 30.16 139.293 28.08C139.693 26 140.033 24.28 140.313 22.92C140.593 21.52 140.773 20.66 140.853 20.34C141.693 20.26 142.693 20.16 143.853 20.04C145.013 19.92 146.093 19.82 147.093 19.74C148.333 19.62 149.553 19.5 150.753 19.38C149.713 24.22 148.793 28.6 147.993 32.52C147.633 34.2 147.273 35.88 146.913 37.56C146.593 39.24 146.273 40.78 145.953 42.18C145.673 43.58 145.413 44.8 145.173 45.84C144.973 46.84 144.793 47.66 144.633 48.3C144.513 48.94 144.353 49.76 144.153 50.76C143.993 51.72 143.913 52.6 143.913 53.4C143.913 54.04 144.073 54.58 144.393 55.02C144.713 55.42 145.113 55.62 145.593 55.62C146.273 55.62 146.833 55.36 147.273 54.84C147.713 54.28 148.073 53.62 148.353 52.86C148.673 52.1 148.893 51.34 149.013 50.58C149.173 49.78 149.313 49.16 149.433 48.72C149.673 47.56 149.933 46.28 150.213 44.88C150.533 43.44 150.833 41.96 151.113 40.44C151.433 38.88 151.733 37.3 152.013 35.7C152.333 34.1 152.633 32.54 152.913 31.02C153.593 27.5 154.253 23.86 154.893 20.1L164.013 19.5C164.013 19.5 163.913 20.02 163.713 21.06C163.513 22.1 163.253 23.48 162.933 25.2C162.613 26.92 162.253 28.88 161.853 31.08C161.493 33.28 161.073 35.58 160.593 37.98C160.113 40.34 159.633 42.68 159.153 45C158.713 47.28 158.273 49.38 157.833 51.3ZM161.37 63.3C162.49 57.66 163.57 52.16 164.61 46.8C165.01 44.56 165.43 42.22 165.87 39.78C166.35 37.3 166.79 34.88 167.19 32.52C167.59 30.12 167.95 27.82 168.27 25.62C168.63 23.38 168.91 21.34 169.11 19.5C170.35 19.42 171.55 19.34 172.71 19.26C173.75 19.18 174.81 19.12 175.89 19.08C176.97 19 177.93 18.92 178.77 18.84C179.29 21.92 179.75 24.86 180.15 27.66C180.35 28.86 180.55 30.12 180.75 31.44C180.99 32.72 181.21 33.96 181.41 35.16C181.61 36.36 181.81 37.52 182.01 38.64C182.21 39.72 182.41 40.68 182.61 41.52C182.77 40.68 182.95 39.72 183.15 38.64C183.35 37.52 183.57 36.36 183.81 35.16C184.05 33.92 184.29 32.66 184.53 31.38C184.81 30.1 185.07 28.86 185.31 27.66C185.91 24.86 186.53 21.94 187.17 18.9L194.49 18C193.13 24 191.93 29.68 190.89 35.04C190.41 37.36 189.93 39.7 189.45 42.06C189.01 44.42 188.59 46.7 188.19 48.9C187.79 51.1 187.45 53.14 187.17 55.02C186.89 56.86 186.67 58.42 186.51 59.7C186.39 59.7 185.91 59.8 185.07 60C184.27 60.16 183.33 60.36 182.25 60.6C181.21 60.84 180.15 61.1 179.07 61.38C178.03 61.62 177.25 61.82 176.73 61.98C176.45 58.74 176.15 55.66 175.83 52.74C175.71 51.5 175.57 50.22 175.41 48.9C175.25 47.58 175.09 46.32 174.93 45.12C174.81 43.92 174.67 42.8 174.51 41.76C174.39 40.68 174.27 39.78 174.15 39.06C174.03 39.78 173.87 40.66 173.67 41.7C173.47 42.74 173.27 43.86 173.07 45.06C172.87 46.22 172.67 47.44 172.47 48.72C172.27 49.96 172.05 51.18 171.81 52.38C171.29 55.22 170.73 58.18 170.13 61.26L161.37 63.3Z" fill="#00C6C7"/>
    <path d="M40.54 32.34C40.54 34.42 40.24 36.64 39.64 39C39.04 41.32 38.2 43.64 37.12 45.96C36.04 48.24 34.7 50.44 33.1 52.56C31.54 54.64 29.76 56.48 27.76 58.08C25.76 59.64 23.56 60.9 21.16 61.86C18.8 62.82 16.28 63.3 13.6 63.3C13.04 63.3 12.48 63.26 11.92 63.18C11.36 63.14 10.8 63.08 10.24 63C11.32 57.48 12.38 52.1 13.42 46.86C13.82 44.66 14.24 42.38 14.68 40.02C15.12 37.62 15.54 35.26 15.94 32.94C16.34 30.62 16.72 28.4 17.08 26.28C17.48 24.16 17.8 22.24 18.04 20.52C19.76 20.2 21.5 19.9 23.26 19.62C25.02 19.34 26.82 19.2 28.66 19.2C30.82 19.2 32.64 19.54 34.12 20.22C35.64 20.9 36.86 21.84 37.78 23.04C38.74 24.24 39.44 25.64 39.88 27.24C40.32 28.84 40.54 30.54 40.54 32.34ZM26.38 27.66C25.94 30.02 25.48 32.28 25 34.44C24.52 36.6 24.04 38.78 23.56 40.98C23.08 43.18 22.6 45.48 22.12 47.88C21.64 50.28 21.18 52.9 20.74 55.74C21.7 55.1 22.62 54.24 23.5 53.16C24.42 52.04 25.28 50.76 26.08 49.32C26.88 47.88 27.6 46.36 28.24 44.76C28.92 43.16 29.5 41.6 29.98 40.08C30.46 38.56 30.82 37.14 31.06 35.82C31.34 34.5 31.48 33.36 31.48 32.4C31.48 30.92 31.06 29.76 30.22 28.92C29.42 28.08 28.14 27.66 26.38 27.66ZM73.0844 30.54C73.0844 33.82 72.7244 36.92 72.0044 39.84C71.3244 42.72 70.4044 45.38 69.2444 47.82C68.0844 50.22 66.7244 52.38 65.1644 54.3C63.6444 56.18 62.0444 57.8 60.3644 59.16C58.6844 60.48 56.9844 61.5 55.2644 62.22C53.5444 62.9 51.9044 63.24 50.3444 63.24C49.0244 63.24 47.8244 63 46.7444 62.52C45.6644 62 44.7244 61.26 43.9244 60.3C43.1244 59.3 42.4844 58.04 42.0044 56.52C41.5644 54.96 41.3444 53.1 41.3444 50.94C41.3444 48.7 41.6244 46.34 42.1844 43.86C42.7444 41.38 43.5044 38.92 44.4644 36.48C45.4244 34.04 46.6044 31.72 48.0044 29.52C49.4044 27.32 50.9444 25.38 52.6244 23.7C54.3044 21.98 56.1044 20.62 58.0244 19.62C59.9444 18.62 61.9444 18.12 64.0244 18.12C65.8244 18.12 67.3044 18.5 68.4644 19.26C69.6644 19.98 70.5844 20.94 71.2244 22.14C71.9044 23.3 72.3844 24.62 72.6644 26.1C72.9444 27.58 73.0844 29.06 73.0844 30.54ZM50.2844 49.38C50.2844 49.82 50.3644 50.28 50.5244 50.76C50.6844 51.24 50.9044 51.66 51.1844 52.02C51.4644 52.38 51.8044 52.7 52.2044 52.98C52.6444 53.22 53.1044 53.34 53.5844 53.34C55.3844 53.34 56.9844 52.72 58.3844 51.48C59.7844 50.24 60.9444 48.72 61.8644 46.92C62.7844 45.12 63.4844 43.2 63.9644 41.16C64.4844 39.12 64.7444 37.26 64.7444 35.58C64.7444 35.1 64.7044 34.58 64.6244 34.02C64.5844 33.46 64.4644 32.94 64.2644 32.46C64.1044 31.98 63.8244 31.58 63.4244 31.26C63.0644 30.9 62.5644 30.72 61.9244 30.72C60.6444 30.72 59.4644 31.04 58.3844 31.68C57.3044 32.32 56.3244 33.18 55.4444 34.26C54.6044 35.3 53.8644 36.5 53.2244 37.86C52.5844 39.18 52.0244 40.54 51.5444 41.94C51.1044 43.3 50.7844 44.64 50.5844 45.96C50.3844 47.28 50.2844 48.42 50.2844 49.38ZM93.6269 61.8C92.6269 61.96 91.5269 62.14 90.3269 62.34C89.1269 62.54 88.0469 62.72 87.0869 62.88C87.2469 61.56 87.4069 60.26 87.5669 58.98C87.6869 57.86 87.7869 56.74 87.8669 55.62C87.9869 54.5 88.0869 53.54 88.1669 52.74H82.9469L80.5469 61.38C79.6669 61.5 78.6269 61.64 77.4269 61.8C76.2269 61.92 75.1069 62.04 74.0669 62.16C72.7869 62.32 71.5269 62.48 70.2869 62.64C71.8869 57.32 73.4669 52.08 75.0269 46.92C75.6669 44.76 76.3269 42.5 77.0069 40.14C77.7269 37.78 78.4269 35.44 79.1069 33.12C79.8269 30.76 80.5069 28.5 81.1469 26.34C81.7869 24.18 82.3469 22.2 82.8269 20.4C85.5469 20.2 88.3069 19.96 91.1069 19.68C93.9469 19.4 96.7069 19.02 99.3869 18.54C99.2669 19.82 99.1269 21.42 98.9669 23.34C98.8469 25.22 98.7269 27.28 98.6069 29.52C98.4869 31.76 98.3669 34.1 98.2469 36.54C98.1269 38.98 98.0069 41.38 97.8869 43.74C97.6869 49.26 97.4669 55.12 97.2269 61.32C96.0269 61.52 94.8269 61.68 93.6269 61.8ZM84.3869 46.74C84.5469 46.74 84.8269 46.74 85.2269 46.74C85.6669 46.7 86.1069 46.68 86.5469 46.68C87.0269 46.64 87.4669 46.62 87.8669 46.62C88.2669 46.58 88.5469 46.54 88.7069 46.5C88.7069 46.26 88.7269 45.86 88.7669 45.3C88.8469 44.7 88.9069 44.04 88.9469 43.32C89.0269 42.56 89.1069 41.74 89.1869 40.86C89.2669 39.98 89.3469 39.12 89.4269 38.28C89.5869 36.24 89.7869 34.04 90.0269 31.68L90.3869 26.46L89.4869 26.52L88.1069 31.68L84.3869 46.74ZM100.744 63.06C101.824 57.74 102.864 52.54 103.864 47.46C104.224 45.3 104.624 43.06 105.064 40.74C105.504 38.38 105.904 36.06 106.264 33.78C106.664 31.46 107.024 29.24 107.344 27.12C107.704 24.96 107.984 23 108.184 21.24C110.464 20.52 112.924 20 115.564 19.68C118.204 19.32 120.824 19.14 123.424 19.14C124.984 19.14 126.264 19.32 127.264 19.68C128.304 20.04 129.104 20.56 129.664 21.24C130.264 21.88 130.684 22.64 130.924 23.52C131.164 24.4 131.284 25.38 131.284 26.46C131.284 28.06 131.004 29.64 130.444 31.2C129.884 32.72 129.124 34.18 128.164 35.58C127.244 36.94 126.164 38.2 124.924 39.36C123.724 40.48 122.424 41.4 121.024 42.12C121.744 43.72 122.504 45.48 123.304 47.4C124.144 49.28 124.924 51.08 125.644 52.8C126.444 54.8 127.264 56.8 128.104 58.8L118.804 62.04C118.004 59.28 117.284 56.68 116.644 54.24C116.364 53.24 116.084 52.22 115.804 51.18C115.524 50.1 115.264 49.1 115.024 48.18C114.784 47.22 114.584 46.38 114.424 45.66C114.264 44.94 114.164 44.38 114.124 43.98L113.344 44.22C113.104 45.5 112.804 47.06 112.444 48.9C112.124 50.74 111.824 52.52 111.544 54.24C111.184 56.28 110.824 58.38 110.464 60.54L100.744 63.06ZM114.844 37.02C115.604 36.94 116.524 36.62 117.604 36.06C118.724 35.5 119.784 34.84 120.784 34.08C121.784 33.28 122.644 32.46 123.364 31.62C124.084 30.78 124.444 30.04 124.444 29.4C124.444 28.96 124.304 28.62 124.024 28.38C123.744 28.1 123.344 27.9 122.824 27.78C122.344 27.62 121.804 27.52 121.204 27.48C120.604 27.44 119.984 27.42 119.344 27.42C118.904 27.42 118.444 27.44 117.964 27.48C117.524 27.48 117.124 27.48 116.764 27.48L114.844 37.02ZM155.124 51.3C154.564 53.58 153.764 55.52 152.724 57.12C151.724 58.72 150.524 60.04 149.124 61.08C147.764 62.12 146.304 62.88 144.744 63.36C143.184 63.84 141.624 64.08 140.064 64.08C139.144 64.08 138.204 63.92 137.244 63.6C136.284 63.32 135.424 62.88 134.664 62.28C133.904 61.68 133.264 60.92 132.744 60C132.264 59.08 132.024 58 132.024 56.76C132.024 56.6 132.024 56.44 132.024 56.28C132.024 56.12 132.044 55.96 132.084 55.8C132.244 54.16 132.504 52.18 132.864 49.86C133.224 47.54 133.604 45.12 134.004 42.6C134.404 40.08 134.844 37.56 135.324 35.04C135.804 32.48 136.224 30.16 136.584 28.08C136.984 26 137.324 24.28 137.604 22.92C137.884 21.52 138.064 20.66 138.144 20.34C138.984 20.26 139.984 20.16 141.144 20.04C142.304 19.92 143.384 19.82 144.384 19.74C145.624 19.62 146.844 19.5 148.044 19.38C147.004 24.22 146.084 28.6 145.284 32.52C144.924 34.2 144.564 35.88 144.204 37.56C143.884 39.24 143.564 40.78 143.244 42.18C142.964 43.58 142.704 44.8 142.464 45.84C142.264 46.84 142.084 47.66 141.924 48.3C141.804 48.94 141.644 49.76 141.444 50.76C141.284 51.72 141.204 52.6 141.204 53.4C141.204 54.04 141.364 54.58 141.684 55.02C142.004 55.42 142.404 55.62 142.884 55.62C143.564 55.62 144.124 55.36 144.564 54.84C145.004 54.28 145.364 53.62 145.644 52.86C145.964 52.1 146.184 51.34 146.304 50.58C146.464 49.78 146.604 49.16 146.724 48.72C146.964 47.56 147.224 46.28 147.504 44.88C147.824 43.44 148.124 41.96 148.404 40.44C148.724 38.88 149.024 37.3 149.304 35.7C149.624 34.1 149.924 32.54 150.204 31.02C150.884 27.5 151.544 23.86 152.184 20.1L161.304 19.5C161.304 19.5 161.204 20.02 161.004 21.06C160.804 22.1 160.544 23.48 160.224 25.2C159.904 26.92 159.544 28.88 159.144 31.08C158.784 33.28 158.364 35.58 157.884 37.98C157.404 40.34 156.924 42.68 156.444 45C156.004 47.28 155.564 49.38 155.124 51.3ZM158.661 63.3C159.781 57.66 160.861 52.16 161.901 46.8C162.301 44.56 162.721 42.22 163.161 39.78C163.641 37.3 164.081 34.88 164.481 32.52C164.881 30.12 165.241 27.82 165.561 25.62C165.921 23.38 166.201 21.34 166.401 19.5C167.641 19.42 168.841 19.34 170.001 19.26C171.041 19.18 172.101 19.12 173.181 19.08C174.261 19 175.221 18.92 176.061 18.84C176.581 21.92 177.041 24.86 177.441 27.66C177.641 28.86 177.841 30.12 178.041 31.44C178.281 32.72 178.501 33.96 178.701 35.16C178.901 36.36 179.101 37.52 179.301 38.64C179.501 39.72 179.701 40.68 179.901 41.52C180.061 40.68 180.241 39.72 180.441 38.64C180.641 37.52 180.861 36.36 181.101 35.16C181.341 33.92 181.581 32.66 181.821 31.38C182.101 30.1 182.361 28.86 182.601 27.66C183.201 24.86 183.821 21.94 184.461 18.9L191.781 18C190.421 24 189.221 29.68 188.181 35.04C187.701 37.36 187.221 39.7 186.741 42.06C186.301 44.42 185.881 46.7 185.481 48.9C185.081 51.1 184.741 53.14 184.461 55.02C184.181 56.86 183.961 58.42 183.801 59.7C183.681 59.7 183.201 59.8 182.361 60C181.561 60.16 180.621 60.36 179.541 60.6C178.501 60.84 177.441 61.1 176.361 61.38C175.321 61.62 174.541 61.82 174.021 61.98C173.741 58.74 173.441 55.66 173.121 52.74C173.001 51.5 172.861 50.22 172.701 48.9C172.541 47.58 172.381 46.32 172.221 45.12C172.101 43.92 171.961 42.8 171.801 41.76C171.681 40.68 171.561 39.78 171.441 39.06C171.321 39.78 171.161 40.66 170.961 41.7C170.761 42.74 170.561 43.86 170.361 45.06C170.161 46.22 169.961 47.44 169.761 48.72C169.561 49.96 169.341 51.18 169.101 52.38C168.581 55.22 168.021 58.18 167.421 61.26L158.661 63.3Z" fill="white"/>
</svg>


